<svg id="Capa_1" data-name="Capa 1" xmlns="http://www.w3.org/2000/svg" xmlns:xlink="http://www.w3.org/1999/xlink" viewBox="0 0 29.92 29.92"><defs><style>.cls-1{fill:url(#linear-gradient);}.cls-2{fill:#fff;}</style><linearGradient id="linear-gradient" x1="25.54" y1="25.54" x2="4.38" y2="4.38" gradientUnits="userSpaceOnUse"><stop offset="0" stop-color="#624da0" stop-opacity="0.3"/><stop offset="1" stop-color="#6800bf"/></linearGradient></defs><title>headsetBg</title><circle class="cls-1" cx="14.96" cy="14.96" r="14.96"/><path class="cls-2" d="M128.2,114.49h-.34a7.82,7.82,0,0,0-15.39,0h-.34a2.06,2.06,0,0,0-2,2.14V119a2.07,2.07,0,0,0,2,2.15h.24a5.23,5.23,0,0,0,5,4.79h.47a1.61,1.61,0,0,0,1.5,1.08H121a1.79,1.79,0,0,0,0-3.56h-1.65a1.62,1.62,0,0,0-1.5,1.09h-.47a3.94,3.94,0,0,1-3.76-4.1v-5.23a6.6,6.6,0,0,1,13.11,0v5.23a.67.67,0,0,0,.64.69h.84a2.07,2.07,0,0,0,2-2.14v-2.41A2.07,2.07,0,0,0,128.2,114.49Zm-8.86,10.4H121a.38.38,0,0,1,.36.39.37.37,0,0,1-.36.39h-1.65a.37.37,0,0,1-.36-.39A.38.38,0,0,1,119.34,124.89Zm-7.9-5.85v-2.41a.73.73,0,0,1,.69-.75h.2v3.91h-.2A.72.72,0,0,1,111.44,119Zm17.45,0a.72.72,0,0,1-.69.75H128v-3.91h.2a.73.73,0,0,1,.69.75Z" transform="translate(-105.21 -102.88)"/></svg>