<svg id="Layer_1" data-name="Layer 1" xmlns="http://www.w3.org/2000/svg" xmlns:xlink="http://www.w3.org/1999/xlink" viewBox="0 0 29.92 29.92"><defs><style>.cls-1{fill:url(#linear-gradient);}.cls-2{fill:#fff;fill-rule:evenodd;}</style><linearGradient id="linear-gradient" x1="25.54" y1="25.54" x2="4.38" y2="4.38" gradientUnits="userSpaceOnUse"><stop offset="0" stop-color="#624da0" stop-opacity="0.3"/><stop offset="1" stop-color="#6800bf"/></linearGradient></defs><title>personBg</title><circle class="cls-1" cx="14.96" cy="14.96" r="14.96"/><path class="cls-2" d="M58.58,64l1.58,4.44.8-2.63-.39-.41a.62.62,0,0,1-.12-.64c.22-.4.65-.33,1.06-.33s1-.07,1.09.44a.64.64,0,0,1-.13.53l-.39.41.79,2.63L64.31,64c1,.89,4.1,1.07,5.24,1.67a3.07,3.07,0,0,1,1,.77,3.56,3.56,0,0,1,.71,2l.23,1.44a1,1,0,0,1-1.09,1H52.54a1,1,0,0,1-1.1-1l.24-1.44a3.56,3.56,0,0,1,.71-2,3.07,3.07,0,0,1,1-.77c1.14-.6,4.2-.78,5.24-1.67Zm-.72-6.34a.77.77,0,0,0-.44.11.29.29,0,0,0-.13.14.4.4,0,0,0,0,.22,1.88,1.88,0,0,0,.42,1h0l.89,1.34A6.72,6.72,0,0,0,59.75,62a2.45,2.45,0,0,0,1.69.65,2.57,2.57,0,0,0,1.8-.68,7.56,7.56,0,0,0,1.23-1.59l1-1.57a1.46,1.46,0,0,0,.22-.83q0-.13-.33-.15H65a1.34,1.34,0,0,1-.28,0l.34-1.44a8,8,0,0,1-4.54-1.22c-.49-.3-.64-.63-1.12-.6a1.63,1.63,0,0,0-.92.47A2.33,2.33,0,0,0,58,56l.2,1.7Zm7.84-.31a.62.62,0,0,1,.46.46A1.73,1.73,0,0,1,65.92,59h0v0l-1,1.59a8.12,8.12,0,0,1-1.31,1.69,3.11,3.11,0,0,1-2.14.81,3,3,0,0,1-2-.78,7.9,7.9,0,0,1-1.28-1.59l-.88-1.34a2.32,2.32,0,0,1-.5-1.22.91.91,0,0,1,.08-.44.84.84,0,0,1,.31-.34,1,1,0,0,1,.21-.1,19.26,19.26,0,0,1,0-2.41,2.82,2.82,0,0,1,.11-.55,3.18,3.18,0,0,1,1.5-1.81,3.94,3.94,0,0,1,.8-.38,5.24,5.24,0,0,1,5.16,1,3.13,3.13,0,0,1,.87,2.06l0,2.19Z" transform="translate(-46.48 -47.64)"/></svg>