<svg id="Icons" xmlns="http://www.w3.org/2000/svg" xmlns:xlink="http://www.w3.org/1999/xlink" viewBox="0 0 29.92 29.92"><defs><style>.cls-1{fill:url(#linear-gradient);}.cls-2{fill:none;stroke:#fff;stroke-linecap:round;stroke-linejoin:round;}</style><linearGradient id="linear-gradient" x1="25.54" y1="25.54" x2="4.38" y2="4.38" gradientUnits="userSpaceOnUse"><stop offset="0" stop-color="#624da0" stop-opacity="0.3"/><stop offset="1" stop-color="#6800bf"/></linearGradient></defs><title>rocketbg</title><circle class="cls-1" cx="14.96" cy="14.96" r="14.96"/><circle class="cls-2" cx="15.28" cy="11.35" r="2"/><path class="cls-2" d="M10,15.9A11.15,11.15,0,0,0,6,22H8.3a2.23,2.23,0,0,0,2.2-2.8,15.4,15.4,0,0,1-.6-4.3C10,9.4,12.5,4.7,16,3c3.5,1.7,6,6.4,6,11.8a14.9,14.9,0,0,1-.6,4.3,2.23,2.23,0,0,0,2.2,2.8H26a10.81,10.81,0,0,0-4-6.1" transform="translate(-0.72 -1.65)"/><line class="cls-2" x1="15.28" y1="20.35" x2="15.28" y2="28.35"/><line class="cls-2" x1="12.28" y1="22.35" x2="12.28" y2="26.35"/><line class="cls-2" x1="18.28" y1="22.35" x2="18.28" y2="26.35"/></svg>